<svg xmlns="http://www.w3.org/2000/svg" viewBox="0 0 120 100" fill="none">
  <!-- Clipboard base -->
  <rect x="10" y="20" width="50" height="60" rx="4" stroke="#2563eb" stroke-width="3" fill="none"/>
  <rect x="22" y="12" width="26" height="12" rx="3" fill="#2563eb"/>
  
  <!-- Checklist lines -->
  <path d="M20 38 L25 43 L32 34" stroke="#2563eb" stroke-width="2.5" stroke-linecap="round" stroke-linejoin="round"/>
  <line x1="38" y1="38" x2="52" y2="38" stroke="#2563eb" stroke-width="2" stroke-linecap="round"/>
  
  <path d="M20 52 L25 57 L32 48" stroke="#2563eb" stroke-width="2.5" stroke-linecap="round" stroke-linejoin="round"/>
  <line x1="38" y1="52" x2="52" y2="52" stroke="#2563eb" stroke-width="2" stroke-linecap="round"/>
  
  <path d="M20 66 L25 71 L32 62" stroke="#2563eb" stroke-width="2.5" stroke-linecap="round" stroke-linejoin="round"/>
  <line x1="38" y1="66" x2="52" y2="66" stroke="#2563eb" stroke-width="2" stroke-linecap="round"/>
  
  <!-- Location pin -->
  <path d="M75 25 C65 25 58 33 58 42 C58 55 75 70 75 70 C75 70 92 55 92 42 C92 33 85 25 75 25Z" stroke="#2563eb" stroke-width="3" fill="none"/>
  <circle cx="75" cy="42" r="7" stroke="#2563eb" stroke-width="2.5" fill="none"/>
  
  <!-- Checkmark/pen -->
  <path d="M90 60 L105 45 L110 50 L95 65 L85 68 L90 60Z" fill="#2563eb"/>
  <path d="M70 75 L85 68" stroke="#2563eb" stroke-width="2.5" stroke-linecap="round"/>
</svg>
